<svg xmlns="http://www.w3.org/2000/svg" width="600" height="378" viewBox="0 0 600 378"><rect width="100%" height="100%" fill="#000000"/><path fill="#FFFFFF" d="M171.33 189.455q0 6.13-2.04 11.25t-5.73 8.81q-3.7 3.7-8.9 5.74-5.19 2.04-11.55 2.04H121.9v-55.67h21.21q6.36 0 11.55 2.06 5.2 2.06 8.9 5.74 3.69 3.67 5.73 8.79t2.04 11.24m-10.62 0q0-4.58-1.21-8.22-1.22-3.63-3.51-6.16-2.29-2.52-5.54-3.86-3.26-1.35-7.34-1.35H132.3v39.19h10.81q4.08 0 7.34-1.35 3.25-1.34 5.54-3.87 2.29-2.52 3.51-6.16 1.21-3.63 1.21-8.22m25.75 3.55h17.95q0-1.85-.52-3.49-.52-1.63-1.56-2.87-1.04-1.23-2.64-1.94t-3.72-.71q-4.12 0-6.48 2.35-2.37 2.34-3.03 6.66m24.26 5.73h-24.45q.23 3.04 1.08 5.26.85 2.21 2.23 3.66 1.39 1.44 3.29 2.15 1.91.71 4.22.71t3.99-.53q1.67-.54 2.92-1.2 1.25-.65 2.2-1.19.94-.54 1.82-.54 1.2 0 1.78.88l2.73 3.47q-1.58 1.85-3.54 3.1-1.97 1.25-4.1 2-2.14.75-4.35 1.06-2.22.31-4.3.31-4.12 0-7.66-1.37t-6.16-4.04q-2.62-2.68-4.12-6.62-1.5-3.95-1.5-9.15 0-4.04 1.31-7.6t3.75-6.2q2.45-2.64 5.97-4.18t7.95-1.54q3.74 0 6.89 1.2 3.16 1.19 5.43 3.48t3.56 5.62 1.29 7.61q0 2.15-.46 2.9t-1.77.75m21.64 18.56h-9.51v-32.34l-3.43-.54q-1.12-.23-1.79-.79t-.67-1.6v-3.88h5.89v-2.93q0-3.39 1.02-6.08 1.02-2.7 2.92-4.58 1.91-1.89 4.64-2.89 2.74-1 6.16-1 2.74 0 5.08.73l-.19 4.77q-.04.54-.31.87t-.71.5-1.02.23-1.23.06q-1.69 0-3.02.36-1.33.37-2.25 1.27-.93.91-1.41 2.39t-.48 3.68v2.62h10.28v6.77h-9.97zm36.19-10.2v-6.66q-4.12.19-6.93.71t-4.51 1.33q-1.69.81-2.42 1.88-.73 1.08-.73 2.35 0 2.51 1.48 3.58 1.48 1.08 3.87 1.08 2.92 0 5.06-1.06t4.18-3.21m-20.1-20.75-1.69-3.05q6.81-6.23 16.4-6.23 3.46 0 6.2 1.13 2.73 1.14 4.62 3.16 1.88 2.02 2.86 4.83.99 2.81.99 6.16v24.95h-4.32q-1.34 0-2.08-.4-.73-.41-1.15-1.64l-.85-2.85q-1.5 1.35-2.92 2.37-1.43 1.02-2.97 1.71t-3.29 1.06-3.87.37q-2.5 0-4.62-.68-2.12-.67-3.66-2.02t-2.38-3.35q-.85-2-.85-4.66 0-1.5.5-2.98t1.64-2.83q1.13-1.35 2.94-2.54t4.45-2.08 6.14-1.44q3.5-.56 8.01-.68v-2.31q0-3.96-1.7-5.87-1.69-1.91-4.89-1.91-2.31 0-3.83.54t-2.67 1.22q-1.16.67-2.1 1.21t-2.1.54q-1 0-1.69-.52-.7-.52-1.12-1.21m62.83-8.55h9.51v39.5h-5.81q-1.89 0-2.39-1.73l-.65-3.16q-2.43 2.46-5.36 3.99-2.92 1.52-6.89 1.52-3.23 0-5.71-1.1-2.49-1.1-4.18-3.1-1.7-2-2.56-4.76-.87-2.75-.87-6.06v-25.1h9.51v25.1q0 3.62 1.68 5.6 1.67 1.99 5.02 1.99 2.46 0 4.62-1.1t4.08-3.02zm19.02-17.71h9.51v57.21h-9.51zm32.19 57.83q-5.16 0-7.92-2.91-2.75-2.91-2.75-8.03v-22.06h-4.04q-.77 0-1.31-.5t-.54-1.5v-3.77l6.35-1.04 2.01-10.78q.19-.77.73-1.2.54-.42 1.38-.42h4.93v12.44h10.55v6.77h-10.55v21.41q0 1.85.91 2.89.9 1.03 2.48 1.03.89 0 1.48-.21.6-.21 1.04-.44t.79-.44.69-.21q.43 0 .7.21t.57.63l2.85 4.62q-2.08 1.73-4.77 2.62-2.7.89-5.58.89m55.21-13.75q.84 0 1.5.66l4.08 4.42q-3.39 4.2-8.34 6.43-4.94 2.24-11.87 2.24-6.2 0-11.15-2.12t-8.45-5.89-5.37-9.01-1.87-11.44q0-6.27 2-11.49 2.01-5.21 5.64-8.99 3.64-3.77 8.69-5.87 5.04-2.1 11.16-2.1 6.08 0 10.8 2.01 4.72 2 8.03 5.23l-3.47 4.81q-.31.47-.79.81-.48.35-1.33.35-.57 0-1.19-.33t-1.35-.81-1.69-1.06q-.96-.57-2.23-1.05-1.27-.49-2.95-.81-1.67-.33-3.87-.33-3.73 0-6.83 1.33t-5.33 3.85q-2.24 2.52-3.47 6.16t-1.23 8.29q0 4.7 1.33 8.36t3.6 6.16 5.35 3.83 6.62 1.33q2.12 0 3.83-.23t3.16-.73q1.44-.51 2.73-1.29 1.29-.79 2.56-1.95.39-.35.81-.56t.89-.21m52.05-42.54h8.35l-22.48 55.67h-9.36l-22.48-55.67h8.31q1.35 0 2.2.65.85.66 1.27 1.7l13.13 33.95q.65 1.66 1.25 3.64.6 1.99 1.13 4.14.47-2.15 1.01-4.14.54-1.98 1.19-3.64l13.05-33.95q.31-.89 1.21-1.62.91-.73 2.22-.73"/></svg>