<svg xmlns="http://www.w3.org/2000/svg" width="600" height="378" viewBox="0 0 600 378"><rect width="100%" height="100%" fill="#000000"/><path fill="#FFFFFF" d="M121.385 178.67h8.8v36.42h-8.8zm10.01-10.62q0 1.14-.46 2.13-.47 1-1.23 1.74-.76.75-1.79 1.19t-2.2.44q-1.14 0-2.15-.44t-1.76-1.19q-.74-.74-1.19-1.74-.44-.99-.44-2.13 0-1.17.44-2.2.45-1.03 1.19-1.77.75-.75 1.76-1.19 1.01-.45 2.15-.45 1.17 0 2.2.45 1.03.44 1.79 1.19.76.74 1.23 1.77.46 1.03.46 2.2m30.6 36.25v-16.33q-1.49-1.81-3.25-2.56-1.76-.74-3.78-.74-1.99 0-3.59.74-1.59.75-2.73 2.26-1.14 1.5-1.74 3.83t-.6 5.48q0 3.2.51 5.42.52 2.22 1.47 3.62.96 1.4 2.35 2.02 1.38.62 3.09.62 2.73 0 4.65-1.13 1.91-1.14 3.62-3.23m0-41.96h8.77v52.75h-5.36q-1.74 0-2.21-1.6l-.74-3.51q-2.2 2.52-5.06 4.08t-6.66 1.56q-2.98 0-5.46-1.24-2.49-1.24-4.28-3.6t-2.77-5.84-.98-7.96q0-4.04 1.1-7.52 1.11-3.48 3.16-6.04 2.06-2.55 4.94-3.99 2.87-1.44 6.46-1.44 3.05 0 5.22.96 2.16.96 3.87 2.59zm54.06 40.64q.79 0 1.39.61l3.76 4.08q-3.12 3.87-7.68 5.93-4.57 2.06-10.96 2.06-5.71 0-10.27-1.95-4.56-1.96-7.8-5.44-3.23-3.48-4.95-8.3-1.72-4.83-1.72-10.55 0-5.78 1.85-10.59 1.84-4.81 5.2-8.29 3.35-3.48 8-5.42 4.65-1.93 10.3-1.93 5.61 0 9.96 1.84 4.34 1.85 7.4 4.83l-3.2 4.44q-.28.43-.73.75-.44.32-1.22.32-.53 0-1.1-.31-.57-.3-1.24-.74-.68-.45-1.57-.98-.88-.53-2.05-.97-1.18-.45-2.72-.75t-3.57-.3q-3.44 0-6.3 1.22-2.86 1.23-4.92 3.55-2.05 2.33-3.19 5.68-1.14 3.36-1.14 7.65 0 4.33 1.23 7.71 1.22 3.37 3.32 5.68 2.09 2.3 4.93 3.53 2.84 1.22 6.11 1.22 1.95 0 3.53-.21t2.91-.67q1.33-.47 2.52-1.19 1.19-.73 2.36-1.8.36-.32.75-.51.39-.2.81-.2m29.58 2.7v-6.14q-3.8.18-6.39.66-2.6.48-4.16 1.22-1.56.75-2.23 1.74-.68 1-.68 2.17 0 2.3 1.37 3.3 1.36.99 3.57.99 2.69 0 4.66-.97 1.97-.98 3.86-2.97m-18.54-19.13-1.56-2.81q6.29-5.75 15.13-5.75 3.19 0 5.71 1.05t4.26 2.91 2.65 4.46q.9 2.59.9 5.68v23h-3.97q-1.25 0-1.92-.37-.68-.38-1.07-1.51l-.78-2.63q-1.38 1.24-2.7 2.18-1.31.95-2.73 1.58-1.42.64-3.03.98-1.62.34-3.57.34-2.31 0-4.26-.62t-3.37-1.87q-1.42-1.24-2.21-3.09-.78-1.84-.78-4.29 0-1.39.46-2.75.47-1.37 1.51-2.61 1.05-1.24 2.72-2.34 1.67-1.11 4.1-1.92 2.43-.82 5.66-1.33 3.23-.52 7.39-.62v-2.13q0-3.66-1.57-5.42-1.56-1.76-4.5-1.76-2.13 0-3.54.5-1.4.5-2.46 1.12-1.07.62-1.94 1.12t-1.93.5q-.93 0-1.57-.48-.63-.48-1.03-1.12m43.07-5.68.53 4.12q1.7-3.27 4.05-5.13 2.34-1.87 5.53-1.87 2.52 0 4.05 1.1l-.57 6.57q-.17.64-.51.91-.34.26-.91.26-.53 0-1.58-.18-1.04-.17-2.04-.17-1.45 0-2.59.42-1.14.43-2.04 1.23-.91.8-1.6 1.93-.69 1.14-1.29 2.59v22.44h-8.77v-36.42h5.14q1.35 0 1.89.48.53.48.71 1.72m41.6 23.43v-16.33q-1.49-1.81-3.25-2.56-1.75-.74-3.78-.74-1.98 0-3.58.74-1.6.75-2.74 2.26-1.13 1.5-1.74 3.83-.6 2.33-.6 5.48 0 3.2.52 5.42.51 2.22 1.47 3.62t2.34 2.02q1.39.62 3.09.62 2.73 0 4.65-1.13 1.92-1.14 3.62-3.23m0-41.96h8.77v52.75h-5.36q-1.74 0-2.2-1.6l-.75-3.51q-2.2 2.52-5.05 4.08-2.86 1.56-6.66 1.56-2.98 0-5.47-1.24-2.48-1.24-4.28-3.6-1.79-2.36-2.76-5.84-.98-3.48-.98-7.96 0-4.04 1.1-7.52t3.16-6.04q2.06-2.55 4.93-3.99 2.88-1.44 6.46-1.44 3.06 0 5.22.96 2.17.96 3.87 2.59zm28.37 45.29h9.65q2.67 0 4.48-.63 1.81-.64 2.89-1.71 1.08-1.06 1.56-2.48t.48-3.02q0-1.67-.53-3t-1.67-2.27-2.93-1.44-4.31-.5h-9.62zm8.13-36.49h-8.13v14.84h7.59q4.9 0 7.41-1.78 2.5-1.77 2.5-5.64 0-4.01-2.27-5.72-2.28-1.7-7.1-1.7m-17.68-7.38h17.68q5.04 0 8.62.96 3.59.95 5.88 2.73 2.29 1.77 3.35 4.29 1.07 2.52 1.07 5.68 0 1.81-.53 3.47-.54 1.65-1.66 3.08-1.11 1.44-2.84 2.61-1.72 1.17-4.1 1.99 10.58 2.38 10.58 11.43 0 3.27-1.24 6.04t-3.62 4.77q-2.38 2.01-5.86 3.14-3.48 1.14-7.95 1.14h-19.38zm64.61 41.92v-6.14q-3.8.18-6.39.66t-4.16 1.22q-1.56.75-2.23 1.74-.68 1-.68 2.17 0 2.3 1.37 3.3 1.37.99 3.57.99 2.7 0 4.67-.97 1.97-.98 3.85-2.97m-18.53-19.13-1.57-2.81q6.29-5.75 15.13-5.75 3.19 0 5.71 1.05t4.26 2.91 2.65 4.46q.9 2.59.9 5.68v23h-3.97q-1.25 0-1.92-.37-.67-.38-1.07-1.51l-.78-2.63q-1.38 1.24-2.69 2.18-1.32.95-2.74 1.58-1.42.64-3.03.98-1.62.34-3.57.34-2.31 0-4.26-.62t-3.37-1.87q-1.42-1.24-2.2-3.09-.79-1.84-.79-4.29 0-1.39.47-2.75.46-1.37 1.51-2.61 1.04-1.24 2.71-2.34 1.67-1.11 4.1-1.92 2.43-.82 5.66-1.33 3.23-.52 7.39-.62v-2.13q0-3.66-1.56-5.42-1.57-1.76-4.51-1.76-2.13 0-3.54.5-1.4.5-2.46 1.12-1.07.62-1.94 1.12t-1.93.5q-.93 0-1.56-.48-.64-.48-1.03-1.12m63.72-3.37-2.31 3.19q-.39.5-.76.78-.37.29-1.08.29-.68 0-1.32-.41t-1.52-.93q-.89-.51-2.12-.92-1.22-.41-3.03-.41-2.31 0-4.05.84-1.74.83-2.89 2.39-1.16 1.57-1.72 3.78-.57 2.22-.57 5.03 0 2.91.62 5.18t1.79 3.82q1.17 1.54 2.84 2.34t3.76.8q2.1 0 3.4-.52 1.29-.51 2.18-1.13t1.54-1.14q.66-.51 1.48-.51 1.06 0 1.59.81l2.52 3.2q-1.45 1.7-3.16 2.86-1.7 1.15-3.53 1.84t-3.76.98q-1.94.28-3.85.28-3.38 0-6.36-1.26t-5.22-3.67q-2.23-2.42-3.53-5.91-1.29-3.5-1.29-7.97 0-4.01 1.15-7.44t3.39-5.93 5.54-3.92 7.6-1.42q4.08 0 7.15 1.31 3.07 1.32 5.52 3.77m5.82-20.84h8.77v30.21h1.63q.89 0 1.4-.23.52-.23 1.05-.94l9.05-11.19q.57-.74 1.26-1.13.7-.39 1.8-.39h8.02l-11.32 13.52q-1.21 1.6-2.63 2.45.74.53 1.33 1.24t1.12 1.53l12.14 17.68h-7.92q-1.03 0-1.77-.34-.75-.33-1.24-1.22l-9.31-13.81q-.49-.82-1.03-1.07-.53-.25-1.59-.25h-1.99v16.69h-8.77z"/></svg>