<svg xmlns="http://www.w3.org/2000/svg" width="600" height="378" viewBox="0 0 600 378"><rect width="100%" height="100%" fill="#000000"/><path fill="#FFFFFF" d="M122.685 179.25h8.31v34.37h-8.31zm9.45-10.02q0 1.07-.44 2.01t-1.16 1.64q-.72.71-1.69 1.13-.97.41-2.07.41-1.08 0-2.03-.41-.96-.42-1.66-1.13-.7-.7-1.12-1.64t-.42-2.01q0-1.1.42-2.07.42-.98 1.12-1.68t1.66-1.12q.95-.42 2.03-.42 1.1 0 2.07.42t1.69 1.12 1.16 1.68q.44.97.44 2.07m28.87 34.21v-15.41q-1.4-1.71-3.06-2.42-1.66-.7-3.57-.7-1.88 0-3.38.7-1.51.71-2.58 2.13-1.08 1.42-1.65 3.62-.56 2.19-.56 5.17 0 3.02.48 5.11.49 2.1 1.39 3.42.91 1.32 2.21 1.91 1.31.59 2.92.59 2.58 0 4.39-1.08 1.8-1.07 3.41-3.04m0-39.6h8.28v49.78h-5.06q-1.64 0-2.08-1.51l-.7-3.31q-2.08 2.37-4.78 3.85-2.69 1.47-6.28 1.47-2.81 0-5.16-1.17-2.34-1.17-4.03-3.4t-2.62-5.51q-.92-3.28-.92-7.51 0-3.81 1.04-7.1 1.04-3.28 2.98-5.69 1.95-2.41 4.66-3.77t6.1-1.36q2.88 0 4.92.91 2.04.9 3.65 2.44zm51.02 38.36q.74 0 1.31.57l3.55 3.85q-2.95 3.65-7.25 5.59-4.31 1.95-10.34 1.95-5.39 0-9.7-1.85-4.3-1.84-7.35-5.12t-4.67-7.84q-1.63-4.56-1.63-9.95 0-5.46 1.75-10 1.74-4.54 4.9-7.82 3.17-3.29 7.56-5.11 4.39-1.83 9.71-1.83 5.3 0 9.4 1.75 4.1 1.74 6.98 4.55l-3.01 4.19q-.27.4-.69.7t-1.15.3q-.51 0-1.04-.28-.54-.29-1.17-.7-.64-.42-1.48-.93-.84-.5-1.94-.92-1.11-.42-2.56-.7-1.46-.29-3.37-.29-3.25 0-5.95 1.16-2.69 1.16-4.64 3.35-1.94 2.19-3.01 5.36t-1.07 7.22q0 4.09 1.15 7.27 1.16 3.18 3.13 5.36 1.98 2.18 4.66 3.33 2.68 1.16 5.76 1.16 1.84 0 3.34-.2 1.49-.2 2.74-.64 1.26-.44 2.38-1.12 1.12-.69 2.23-1.69.33-.31.7-.49t.77-.18m27.91 2.54v-5.79q-3.59.16-6.03.62-2.45.45-3.92 1.15-1.48.71-2.11 1.64-.64.94-.64 2.05 0 2.17 1.29 3.11t3.37.94q2.54 0 4.4-.92t3.64-2.8m-17.49-18.05-1.47-2.65q5.93-5.43 14.27-5.43 3.01 0 5.39.99t4.02 2.75 2.5 4.2q.85 2.45.85 5.36v21.71h-3.75q-1.17 0-1.81-.35t-1-1.43l-.74-2.47q-1.31 1.17-2.55 2.06-1.24.88-2.58 1.49-1.34.6-2.86.92-1.53.32-3.37.32-2.18 0-4.02-.59t-3.18-1.76-2.08-2.91q-.73-1.75-.73-4.06 0-1.3.43-2.59.44-1.29 1.42-2.47.99-1.17 2.57-2.21 1.57-1.04 3.87-1.81 2.29-.77 5.34-1.25 3.05-.49 6.97-.59v-2.01q0-3.45-1.48-5.11-1.47-1.66-4.25-1.66-2.01 0-3.33.47-1.33.47-2.33 1.06-1.01.59-1.83 1.05-.82.47-1.82.47-.87 0-1.48-.45-.6-.45-.97-1.05m40.64-5.36.5 3.88q1.61-3.08 3.82-4.84t5.22-1.76q2.38 0 3.82 1.04l-.53 6.2q-.17.6-.49.85t-.85.25q-.51 0-1.49-.16-.99-.17-1.93-.17-1.37 0-2.45.4-1.07.4-1.92 1.16-.86.75-1.51 1.82t-1.22 2.45v21.17h-8.28v-34.37h4.86q1.27 0 1.78.45.5.45.67 1.63m39.26 22.11v-15.41q-1.41-1.71-3.07-2.42-1.65-.7-3.56-.7-1.88 0-3.39.7-1.51.71-2.58 2.13t-1.64 3.62q-.57 2.19-.57 5.17 0 3.02.49 5.11.48 2.1 1.39 3.42.9 1.32 2.21 1.91t2.91.59q2.58 0 4.39-1.08 1.81-1.07 3.42-3.04m0-39.6h8.27v49.78h-5.06q-1.64 0-2.07-1.51l-.71-3.31q-2.07 2.37-4.77 3.85-2.7 1.47-6.28 1.47-2.81 0-5.16-1.17-2.34-1.17-4.04-3.4-1.69-2.23-2.61-5.51t-.92-7.51q0-3.81 1.04-7.1 1.04-3.28 2.98-5.69t4.66-3.77q2.71-1.36 6.09-1.36 2.88 0 4.93.91 2.04.9 3.65 2.44zm48.31 8.51h-21.51v14.34h18.16v7.2h-18.16v19.73h-9.05v-48.44h30.56zm13.36 8.98.5 3.88q1.61-3.08 3.82-4.84t5.23-1.76q2.38 0 3.82 1.04l-.54 6.2q-.16.6-.48.85t-.86.25q-.5 0-1.49-.16-.99-.17-1.92-.17-1.38 0-2.45.4t-1.93 1.16q-.85.75-1.5 1.82-.66 1.07-1.23 2.45v21.17h-8.27v-34.37h4.86q1.27 0 1.77.45t.67 1.63m32.9-2.62q3.82 0 6.95 1.24t5.36 3.52 3.43 5.56q1.21 3.28 1.21 7.34 0 4.08-1.21 7.37-1.2 3.28-3.43 5.59t-5.36 3.55-6.95 1.24q-3.85 0-7-1.24t-5.38-3.55-3.45-5.59q-1.22-3.29-1.22-7.37 0-4.06 1.22-7.34t3.45-5.56 5.38-3.52 7-1.24m0 29.05q4.29 0 6.35-2.88t2.06-8.45q0-5.56-2.06-8.47-2.06-2.92-6.35-2.92-4.36 0-6.45 2.94-2.09 2.93-2.09 8.45 0 5.53 2.09 8.43t6.45 2.9m30.45-27 .57 2.71q1.04-1.04 2.19-1.93 1.16-.88 2.45-1.5t2.76-.98q1.48-.35 3.22-.35 2.81 0 4.99.96 2.18.95 3.64 2.68 1.45 1.72 2.21 4.12.75 2.39.75 5.27v21.88h-8.27v-21.88q0-3.14-1.44-4.87t-4.39-1.73q-2.15 0-4.02.98-1.88.97-3.55 2.64v24.86h-8.28v-34.37h5.06q1.61 0 2.11 1.51m42.08 33.4q-4.49 0-6.89-2.53-2.39-2.53-2.39-6.99v-19.19h-3.52q-.67 0-1.14-.44-.47-.43-.47-1.31v-3.28l5.53-.9 1.74-9.38q.17-.67.64-1.04t1.2-.37h4.29v10.82h9.18v5.9h-9.18v18.62q0 1.61.79 2.51.79.91 2.16.91.77 0 1.29-.18.52-.19.9-.39.39-.2.69-.39.3-.18.6-.18.37 0 .61.18.23.19.5.56l2.48 4.02q-1.81 1.5-4.16 2.28-2.34.77-4.85.77"/></svg>