<svg xmlns="http://www.w3.org/2000/svg" width="600" height="378" viewBox="0 0 600 378"><rect width="100%" height="100%" fill="#000000"/><path fill="#FFFFFF" d="M157.6 189.345q0 4.61-1.54 8.47t-4.32 6.64q-2.79 2.79-6.7 4.32-3.92 1.54-8.7 1.54h-15.98v-41.93h15.98q4.78 0 8.7 1.55 3.91 1.55 6.7 4.32 2.78 2.77 4.32 6.62 1.54 3.86 1.54 8.47m-8.01 0q0-3.45-.91-6.19t-2.64-4.64-4.18-2.91q-2.45-1.02-5.52-1.02h-8.15v29.52h8.15q3.07 0 5.52-1.01 2.45-1.02 4.18-2.92t2.64-4.64.91-6.19m19.4 2.67h13.52q0-1.39-.39-2.62-.4-1.24-1.18-2.16-.78-.93-1.99-1.47-1.2-.54-2.79-.54-3.11 0-4.89 1.77t-2.28 5.02m18.27 4.32h-18.41q.17 2.29.81 3.96t1.68 2.76q1.05 1.08 2.48 1.62 1.44.54 3.18.54t3-.41 2.2-.9q.95-.49 1.66-.9.71-.4 1.37-.4.9 0 1.34.66l2.06 2.61q-1.19 1.39-2.67 2.34-1.48.94-3.09 1.51-1.61.56-3.28.79-1.66.23-3.23.23-3.1 0-5.77-1.02-2.67-1.03-4.64-3.05t-3.1-4.99q-1.14-2.97-1.14-6.89 0-3.04.99-5.72.99-2.69 2.83-4.67 1.84-1.99 4.49-3.15 2.66-1.16 5.99-1.16 2.81 0 5.19.9t4.09 2.63q1.71 1.72 2.68 4.23.98 2.51.98 5.73 0 1.62-.35 2.19-.35.56-1.34.56m16.3 13.98h-7.16v-24.36l-2.58-.41q-.84-.17-1.35-.59t-.51-1.2v-2.93h4.44v-2.21q0-2.55.77-4.58t2.2-3.45q1.44-1.42 3.5-2.18 2.05-.75 4.64-.75 2.05 0 3.82.55l-.14 3.6q-.03.4-.23.65-.21.25-.54.38t-.77.17q-.43.04-.93.04-1.27 0-2.27.28t-1.7.96-1.06 1.8q-.36 1.11-.36 2.77v1.97h7.74v5.1h-7.51zm27.26-7.69v-5.01q-3.1.14-5.22.53-2.12.4-3.39 1-1.28.61-1.83 1.43-.55.81-.55 1.76 0 1.89 1.12 2.7 1.11.81 2.91.81 2.21 0 3.81-.79 1.61-.8 3.15-2.43m-15.14-15.63-1.27-2.29q5.13-4.7 12.35-4.7 2.61 0 4.67.86t3.48 2.38 2.16 3.64q.74 2.11.74 4.64v18.79h-3.25q-1.01 0-1.56-.3-.55-.31-.87-1.24l-.64-2.14q-1.13 1.01-2.21 1.78-1.07.77-2.23 1.29t-2.48.8q-1.32.27-2.91.27-1.89 0-3.48-.5-1.6-.51-2.76-1.53-1.16-1.01-1.8-2.52-.63-1.51-.63-3.51 0-1.13.37-2.25.38-1.11 1.24-2.13.85-1.01 2.21-1.91 1.37-.9 3.35-1.57 1.99-.66 4.63-1.08t6.03-.51v-1.74q0-2.99-1.27-4.42-1.28-1.44-3.69-1.44-1.74 0-2.88.41-1.15.4-2.02.91t-1.58.91q-.71.41-1.58.41-.75 0-1.28-.39-.52-.39-.84-.92m47.33-6.43h7.16v29.75h-4.37q-1.43 0-1.8-1.31l-.5-2.37q-1.82 1.85-4.03 3-2.2 1.14-5.19 1.14-2.43 0-4.3-.82-1.87-.83-3.15-2.34t-1.93-3.58-.65-4.57v-18.9h7.16v18.9q0 2.73 1.26 4.22 1.26 1.5 3.79 1.5 1.85 0 3.48-.83 1.62-.83 3.07-2.28zm14.33-13.34h7.16v43.09h-7.16zm24.24 43.55q-3.88 0-5.96-2.19-2.07-2.19-2.07-6.04v-16.62h-3.05q-.58 0-.98-.38-.41-.37-.41-1.13v-2.84l4.79-.78 1.5-8.12q.15-.58.56-.9.4-.32 1.04-.32h3.71v9.37h7.95v5.1h-7.95v16.12q0 1.4.68 2.18t1.87.78q.67 0 1.12-.16t.78-.33q.34-.17.6-.33t.52-.16q.32 0 .52.16t.44.47l2.14 3.48q-1.56 1.31-3.59 1.98-2.03.66-4.21.66m20.59-21.31H328q2.15 0 3.74-.54 1.6-.53 2.65-1.53 1.06-1.01 1.59-2.44.52-1.44.52-3.21 0-1.68-.52-3.04-.53-1.36-1.57-2.32t-2.64-1.46q-1.59-.51-3.77-.51h-5.83zm-7.8-21.08H328q4.21 0 7.28.98 3.07.99 5.07 2.76 2.01 1.77 2.98 4.23.97 2.47.97 5.39 0 3.05-1.02 5.59-1.01 2.53-3.04 4.36t-5.09 2.84q-3.06 1.02-7.15 1.02h-5.83v14.76h-7.8zm41.09 13.97.44 3.37q1.39-2.67 3.3-4.19 1.92-1.53 4.53-1.53 2.06 0 3.3.9l-.46 5.37q-.14.52-.42.74t-.74.22q-.43 0-1.29-.15-.86-.14-1.67-.14-1.19 0-2.11.34-.93.35-1.67 1-.74.66-1.31 1.58-.56.93-1.06 2.12v18.33h-7.16v-29.75h4.21q1.1 0 1.53.39.44.39.58 1.4m28.48-2.26q3.31 0 6.02 1.07 2.71 1.08 4.64 3.05t2.97 4.81q1.05 2.85 1.05 6.35 0 3.54-1.05 6.39-1.04 2.84-2.97 4.84t-4.64 3.07-6.02 1.07q-3.33 0-6.06-1.07t-4.65-3.07q-1.93-2-2.99-4.84-1.06-2.85-1.06-6.39 0-3.5 1.06-6.35 1.06-2.84 2.99-4.81 1.92-1.97 4.65-3.05 2.73-1.07 6.06-1.07m0 25.14q3.71 0 5.5-2.49 1.78-2.49 1.78-7.31 0-4.81-1.78-7.33-1.79-2.53-5.5-2.53-3.77 0-5.58 2.54t-1.81 7.32q0 4.79 1.81 7.3 1.81 2.5 5.58 2.5m29.41 5.08h-7.17v-24.36l-2.58-.41q-.84-.17-1.35-.59-.5-.42-.5-1.2v-2.93h4.43v-2.21q0-2.55.77-4.58t2.21-3.45q1.43-1.42 3.49-2.18 2.06-.75 4.64-.75 2.06 0 3.83.55l-.15 3.6q-.02.4-.23.65-.2.25-.53.38-.34.13-.77.17-.44.04-.93.04-1.28 0-2.28.28t-1.69.96q-.7.68-1.06 1.8-.36 1.11-.36 2.77v1.97h7.74v5.1h-7.51zm11.77-29.75h7.19v29.75h-7.19zm8.18-8.68q0 .93-.38 1.74-.37.82-1 1.43-.62.6-1.46.97-.84.36-1.8.36-.93 0-1.75-.36-.83-.37-1.44-.97-.61-.61-.97-1.43-.36-.81-.36-1.74 0-.95.36-1.79t.97-1.45 1.44-.97q.82-.37 1.75-.37.96 0 1.8.37.84.36 1.46.97.63.61 1 1.45.38.84.38 1.79m6.41-4.66h7.16v43.09h-7.16zm19.98 24.79h13.51q0-1.39-.39-2.62-.39-1.24-1.17-2.16-.79-.93-1.99-1.47t-2.8-.54q-3.1 0-4.88 1.77-1.79 1.77-2.28 5.02m18.27 4.32h-18.42q.18 2.29.82 3.96.63 1.67 1.68 2.76 1.04 1.08 2.48 1.62 1.43.54 3.17.54t3.01-.41q1.26-.41 2.2-.9t1.65-.9q.71-.4 1.38-.4.9 0 1.33.66l2.06 2.61q-1.19 1.39-2.67 2.34-1.47.94-3.08 1.51-1.61.56-3.28.79t-3.23.23q-3.11 0-5.78-1.02-2.66-1.03-4.64-3.05-1.97-2.02-3.1-4.99t-1.13-6.89q0-3.04.99-5.72.98-2.69 2.82-4.67 1.85-1.99 4.5-3.15t5.99-1.16q2.81 0 5.19.9t4.09 2.63q1.71 1.72 2.68 4.23t.97 5.73q0 1.62-.35 2.19-.34.56-1.33.56"/></svg>